ply
format ascii 1.0
element vertex 458
property float x
property float y
property float z
element face 0
property list uint8 int32 vertex_index
end_header
24.00000 0.00000 8.00000
24.00000 8.00000 8.00000
24.00000 0.00000 16.00000
24.00000 8.00000 16.00000
24.00000 16.00000 8.00000
24.00000 24.00000 8.00000
24.00000 16.00000 16.00000
24.00000 24.00000 16.00000
8.00000 48.00000 8.00000
8.00000 48.00000 16.00000
8.00000 48.00000 24.00000
8.00000 56.00000 24.00000
24.00000 32.00000 8.00000
24.00000 40.00000 8.00000
24.00000 32.00000 16.00000
24.00000 40.00000 16.00000
16.00000 48.00000 0.00000
16.00000 48.00000 8.00000
24.00000 48.00000 0.00000
24.00000 48.00000 8.00000
24.00000 56.00000 8.00000
16.00000 48.00000 16.00000
16.00000 48.00000 24.00000
16.00000 56.00000 16.00000
16.00000 56.00000 24.00000
24.00000 48.00000 16.00000
24.00000 48.00000 24.00000
24.00000 56.00000 16.00000
24.00000 56.00000 24.00000
0.00000 48.00000 32.00000
0.00000 48.00000 40.00000
8.00000 48.00000 32.00000
8.00000 48.00000 40.00000
8.00000 56.00000 40.00000
0.00000 48.00000 48.00000
0.00000 48.00000 56.00000
8.00000 48.00000 48.00000
8.00000 48.00000 56.00000
8.00000 56.00000 48.00000
8.00000 56.00000 56.00000
16.00000 48.00000 32.00000
16.00000 48.00000 40.00000
16.00000 56.00000 32.00000
16.00000 56.00000 40.00000
24.00000 48.00000 32.00000
24.00000 48.00000 40.00000
24.00000 56.00000 32.00000
24.00000 56.00000 40.00000
16.00000 48.00000 48.00000
16.00000 48.00000 56.00000
16.00000 56.00000 48.00000
16.00000 56.00000 56.00000
24.00000 48.00000 48.00000
24.00000 48.00000 56.00000
24.00000 56.00000 48.00000
24.00000 56.00000 56.00000
32.00000 0.00000 8.00000
32.00000 8.00000 8.00000
32.00000 0.00000 16.00000
32.00000 8.00000 16.00000
32.00000 16.00000 8.00000
32.00000 24.00000 8.00000
32.00000 16.00000 16.00000
32.00000 24.00000 16.00000
32.00000 32.00000 8.00000
32.00000 40.00000 8.00000
32.00000 32.00000 16.00000
32.00000 40.00000 16.00000
32.00000 48.00000 0.00000
32.00000 48.00000 8.00000
32.00000 56.00000 8.00000
40.00000 48.00000 0.00000
40.00000 48.00000 8.00000
40.00000 56.00000 8.00000
32.00000 48.00000 16.00000
32.00000 48.00000 24.00000
32.00000 56.00000 16.00000
32.00000 56.00000 24.00000
40.00000 48.00000 16.00000
40.00000 48.00000 24.00000
40.00000 56.00000 16.00000
40.00000 56.00000 24.00000
48.00000 48.00000 0.00000
48.00000 48.00000 8.00000
48.00000 56.00000 8.00000
56.00000 48.00000 0.00000
56.00000 48.00000 8.00000
56.00000 56.00000 8.00000
48.00000 48.00000 16.00000
48.00000 48.00000 24.00000
48.00000 56.00000 16.00000
48.00000 56.00000 24.00000
56.00000 48.00000 16.00000
56.00000 48.00000 24.00000
56.00000 56.00000 24.00000
32.00000 48.00000 32.00000
32.00000 48.00000 40.00000
32.00000 56.00000 32.00000
32.00000 56.00000 40.00000
40.00000 48.00000 32.00000
40.00000 48.00000 40.00000
40.00000 56.00000 32.00000
40.00000 56.00000 40.00000
32.00000 48.00000 56.00000
32.00000 56.00000 48.00000
32.00000 56.00000 56.00000
40.00000 48.00000 48.00000
40.00000 48.00000 56.00000
40.00000 56.00000 48.00000
40.00000 56.00000 56.00000
48.00000 48.00000 32.00000
48.00000 56.00000 32.00000
48.00000 56.00000 40.00000
56.00000 48.00000 32.00000
56.00000 56.00000 32.00000
56.00000 56.00000 40.00000
48.00000 48.00000 48.00000
48.00000 48.00000 56.00000
48.00000 56.00000 48.00000
48.00000 56.00000 56.00000
56.00000 48.00000 48.00000
56.00000 48.00000 56.00000
56.00000 56.00000 48.00000
56.00000 56.00000 56.00000
24.00000 0.00000 72.00000
24.00000 8.00000 72.00000
24.00000 8.00000 80.00000
24.00000 16.00000 72.00000
24.00000 24.00000 72.00000
24.00000 16.00000 80.00000
24.00000 24.00000 80.00000
0.00000 48.00000 64.00000
8.00000 48.00000 64.00000
8.00000 48.00000 72.00000
8.00000 56.00000 64.00000
8.00000 48.00000 80.00000
24.00000 32.00000 72.00000
24.00000 40.00000 72.00000
24.00000 32.00000 80.00000
24.00000 40.00000 80.00000
24.00000 40.00000 88.00000
16.00000 48.00000 64.00000
16.00000 48.00000 72.00000
16.00000 56.00000 64.00000
16.00000 56.00000 72.00000
24.00000 48.00000 64.00000
24.00000 48.00000 72.00000
24.00000 56.00000 64.00000
24.00000 56.00000 72.00000
16.00000 48.00000 80.00000
16.00000 48.00000 88.00000
16.00000 56.00000 80.00000
24.00000 48.00000 80.00000
24.00000 48.00000 88.00000
24.00000 56.00000 80.00000
32.00000 8.00000 72.00000
32.00000 0.00000 80.00000
32.00000 8.00000 80.00000
32.00000 16.00000 72.00000
32.00000 24.00000 72.00000
32.00000 16.00000 80.00000
32.00000 24.00000 80.00000
32.00000 32.00000 72.00000
32.00000 40.00000 72.00000
32.00000 32.00000 80.00000
32.00000 40.00000 80.00000
32.00000 40.00000 88.00000
32.00000 48.00000 64.00000
32.00000 48.00000 72.00000
32.00000 56.00000 64.00000
32.00000 56.00000 72.00000
40.00000 48.00000 64.00000
40.00000 48.00000 72.00000
40.00000 56.00000 64.00000
40.00000 56.00000 72.00000
32.00000 48.00000 80.00000
32.00000 48.00000 88.00000
32.00000 56.00000 80.00000
40.00000 48.00000 80.00000
40.00000 48.00000 88.00000
40.00000 56.00000 80.00000
48.00000 48.00000 64.00000
48.00000 48.00000 72.00000
48.00000 56.00000 64.00000
48.00000 56.00000 72.00000
56.00000 48.00000 64.00000
56.00000 48.00000 72.00000
56.00000 56.00000 64.00000
56.00000 56.00000 72.00000
48.00000 48.00000 80.00000
48.00000 48.00000 88.00000
48.00000 56.00000 80.00000
56.00000 48.00000 80.00000
56.00000 48.00000 88.00000
56.00000 56.00000 80.00000
8.00000 88.00000 24.00000
16.00000 64.00000 16.00000
16.00000 64.00000 24.00000
16.00000 72.00000 16.00000
16.00000 72.00000 24.00000
24.00000 64.00000 16.00000
24.00000 64.00000 24.00000
24.00000 72.00000 16.00000
16.00000 88.00000 8.00000
24.00000 88.00000 8.00000
16.00000 80.00000 16.00000
16.00000 80.00000 24.00000
16.00000 88.00000 16.00000
16.00000 88.00000 24.00000
24.00000 80.00000 24.00000
24.00000 88.00000 16.00000
24.00000 88.00000 24.00000
0.00000 88.00000 40.00000
8.00000 88.00000 32.00000
8.00000 88.00000 40.00000
0.00000 88.00000 48.00000
0.00000 88.00000 56.00000
8.00000 88.00000 48.00000
8.00000 88.00000 56.00000
16.00000 64.00000 40.00000
16.00000 72.00000 40.00000
24.00000 64.00000 40.00000
24.00000 72.00000 40.00000
16.00000 64.00000 56.00000
16.00000 72.00000 56.00000
24.00000 64.00000 56.00000
24.00000 72.00000 56.00000
16.00000 80.00000 40.00000
16.00000 88.00000 32.00000
16.00000 88.00000 40.00000
24.00000 80.00000 40.00000
24.00000 88.00000 32.00000
24.00000 88.00000 40.00000
16.00000 80.00000 56.00000
16.00000 88.00000 48.00000
16.00000 88.00000 56.00000
24.00000 80.00000 56.00000
24.00000 88.00000 48.00000
24.00000 88.00000 56.00000
8.00000 96.00000 16.00000
8.00000 96.00000 24.00000
16.00000 96.00000 8.00000
24.00000 96.00000 8.00000
16.00000 96.00000 16.00000
16.00000 96.00000 24.00000
24.00000 96.00000 16.00000
0.00000 96.00000 40.00000
8.00000 96.00000 32.00000
8.00000 96.00000 40.00000
0.00000 96.00000 48.00000
0.00000 96.00000 56.00000
8.00000 96.00000 48.00000
8.00000 96.00000 56.00000
16.00000 96.00000 32.00000
16.00000 96.00000 40.00000
24.00000 96.00000 40.00000
16.00000 96.00000 48.00000
24.00000 96.00000 48.00000
24.00000 96.00000 56.00000
32.00000 88.00000 8.00000
32.00000 88.00000 24.00000
40.00000 88.00000 24.00000
32.00000 96.00000 8.00000
32.00000 96.00000 16.00000
32.00000 96.00000 24.00000
40.00000 96.00000 24.00000
32.00000 96.00000 32.00000
40.00000 96.00000 32.00000
0.00000 88.00000 64.00000
8.00000 88.00000 64.00000
8.00000 88.00000 72.00000
8.00000 88.00000 80.00000
16.00000 64.00000 64.00000
16.00000 64.00000 72.00000
16.00000 72.00000 64.00000
24.00000 64.00000 64.00000
24.00000 64.00000 72.00000
24.00000 72.00000 64.00000
24.00000 72.00000 72.00000
24.00000 64.00000 80.00000
24.00000 72.00000 80.00000
16.00000 80.00000 64.00000
16.00000 80.00000 72.00000
16.00000 88.00000 64.00000
16.00000 88.00000 72.00000
24.00000 80.00000 72.00000
24.00000 88.00000 64.00000
24.00000 88.00000 72.00000
16.00000 80.00000 80.00000
16.00000 88.00000 80.00000
16.00000 88.00000 88.00000
24.00000 80.00000 80.00000
24.00000 88.00000 80.00000
24.00000 88.00000 88.00000
16.00000 88.00000 96.00000
24.00000 88.00000 96.00000
0.00000 96.00000 64.00000
8.00000 96.00000 64.00000
8.00000 96.00000 72.00000
8.00000 96.00000 80.00000
16.00000 96.00000 64.00000
16.00000 96.00000 72.00000
24.00000 96.00000 64.00000
24.00000 96.00000 72.00000
16.00000 96.00000 88.00000
24.00000 96.00000 80.00000
24.00000 96.00000 88.00000
24.00000 96.00000 96.00000
32.00000 88.00000 64.00000
32.00000 88.00000 72.00000
32.00000 88.00000 80.00000
32.00000 88.00000 88.00000
40.00000 88.00000 80.00000
32.00000 88.00000 96.00000
32.00000 96.00000 64.00000
32.00000 96.00000 72.00000
40.00000 96.00000 72.00000
32.00000 96.00000 80.00000
32.00000 96.00000 88.00000
40.00000 96.00000 80.00000
32.00000 96.00000 96.00000
64.00000 48.00000 0.00000
64.00000 48.00000 8.00000
64.00000 56.00000 8.00000
72.00000 48.00000 0.00000
72.00000 48.00000 8.00000
72.00000 56.00000 8.00000
64.00000 48.00000 16.00000
64.00000 48.00000 24.00000
64.00000 56.00000 16.00000
64.00000 56.00000 24.00000
72.00000 48.00000 16.00000
72.00000 48.00000 24.00000
72.00000 56.00000 16.00000
72.00000 56.00000 24.00000
88.00000 40.00000 8.00000
80.00000 48.00000 0.00000
80.00000 48.00000 8.00000
80.00000 56.00000 8.00000
88.00000 48.00000 0.00000
88.00000 48.00000 8.00000
88.00000 56.00000 8.00000
80.00000 48.00000 16.00000
80.00000 48.00000 24.00000
80.00000 56.00000 16.00000
80.00000 56.00000 24.00000
88.00000 48.00000 16.00000
88.00000 48.00000 24.00000
88.00000 56.00000 16.00000
88.00000 56.00000 24.00000
64.00000 48.00000 32.00000
64.00000 48.00000 40.00000
64.00000 56.00000 32.00000
64.00000 56.00000 40.00000
72.00000 48.00000 32.00000
72.00000 48.00000 40.00000
72.00000 56.00000 32.00000
72.00000 56.00000 40.00000
64.00000 48.00000 48.00000
64.00000 48.00000 56.00000
64.00000 56.00000 48.00000
64.00000 56.00000 56.00000
72.00000 48.00000 48.00000
72.00000 48.00000 56.00000
72.00000 56.00000 48.00000
72.00000 56.00000 56.00000
80.00000 48.00000 32.00000
80.00000 48.00000 40.00000
80.00000 56.00000 32.00000
80.00000 56.00000 40.00000
88.00000 48.00000 32.00000
88.00000 48.00000 40.00000
88.00000 56.00000 32.00000
88.00000 56.00000 40.00000
80.00000 48.00000 48.00000
80.00000 48.00000 56.00000
80.00000 56.00000 48.00000
80.00000 56.00000 56.00000
88.00000 48.00000 48.00000
88.00000 48.00000 56.00000
88.00000 56.00000 48.00000
88.00000 56.00000 56.00000
96.00000 0.00000 8.00000
96.00000 8.00000 8.00000
96.00000 0.00000 16.00000
96.00000 8.00000 16.00000
96.00000 16.00000 8.00000
96.00000 24.00000 8.00000
96.00000 16.00000 16.00000
96.00000 24.00000 16.00000
96.00000 32.00000 8.00000
96.00000 40.00000 8.00000
96.00000 32.00000 16.00000
96.00000 40.00000 16.00000
96.00000 48.00000 0.00000
96.00000 48.00000 8.00000
96.00000 56.00000 8.00000
96.00000 48.00000 16.00000
96.00000 48.00000 24.00000
96.00000 56.00000 16.00000
96.00000 56.00000 24.00000
96.00000 48.00000 32.00000
96.00000 48.00000 40.00000
96.00000 56.00000 32.00000
96.00000 56.00000 40.00000
96.00000 48.00000 48.00000
96.00000 48.00000 56.00000
96.00000 56.00000 48.00000
96.00000 56.00000 56.00000
64.00000 48.00000 64.00000
64.00000 48.00000 72.00000
64.00000 56.00000 64.00000
64.00000 56.00000 72.00000
72.00000 48.00000 64.00000
72.00000 48.00000 72.00000
72.00000 56.00000 64.00000
72.00000 56.00000 72.00000
64.00000 48.00000 80.00000
64.00000 48.00000 88.00000
64.00000 56.00000 80.00000
72.00000 48.00000 80.00000
72.00000 48.00000 88.00000
72.00000 56.00000 80.00000
88.00000 40.00000 72.00000
88.00000 40.00000 80.00000
80.00000 48.00000 64.00000
80.00000 48.00000 72.00000
80.00000 56.00000 64.00000
80.00000 56.00000 72.00000
88.00000 48.00000 64.00000
88.00000 48.00000 72.00000
88.00000 56.00000 64.00000
88.00000 56.00000 72.00000
80.00000 48.00000 80.00000
80.00000 48.00000 88.00000
80.00000 56.00000 80.00000
88.00000 48.00000 80.00000
88.00000 48.00000 88.00000
88.00000 56.00000 80.00000
96.00000 0.00000 72.00000
96.00000 8.00000 72.00000
96.00000 0.00000 80.00000
96.00000 8.00000 80.00000
96.00000 16.00000 72.00000
96.00000 24.00000 72.00000
96.00000 16.00000 80.00000
96.00000 24.00000 80.00000
96.00000 32.00000 72.00000
96.00000 40.00000 72.00000
96.00000 32.00000 80.00000
96.00000 40.00000 80.00000
96.00000 40.00000 88.00000
96.00000 48.00000 64.00000
96.00000 48.00000 72.00000
96.00000 56.00000 64.00000
96.00000 48.00000 80.00000
96.00000 48.00000 88.00000
96.00000 56.00000 80.00000
