ply
format ascii 1.0
element vertex 2048
property float x
property float y
property float z
end_header
78.0 53.0 62.0
26.0 42.0 72.0
36.0 53.0 75.0
16.0 46.0 85.0
22.0 90.0 37.0
75.0 53.0 37.0
27.0 4.0 81.0
38.0 46.0 77.0
29.0 28.0 11.0
21.0 83.0 54.0
76.0 46.0 1.0
72.0 53.0 40.0
14.0 92.0 87.0
13.0 46.0 24.0
48.0 46.0 60.0
4.0 99.0 66.0
67.0 53.0 25.0
27.0 39.0 75.0
23.0 70.0 71.0
26.0 5.0 12.0
19.0 52.0 39.0
24.0 99.0 79.0
16.0 74.0 40.0
29.0 30.0 8.0
99.0 48.0 13.0
95.0 51.0 18.0
65.0 51.0 84.0
92.0 46.0 85.0
68.0 53.0 81.0
6.0 93.0 29.0
29.0 53.0 60.0
33.0 90.0 80.0
42.0 46.0 79.0
54.0 53.0 43.0
27.0 53.0 49.0
28.0 9.0 81.0
23.0 52.0 19.0
27.0 24.0 15.0
16.0 62.0 57.0
52.0 46.0 55.0
27.0 10.0 81.0
32.0 46.0 40.0
29.0 25.0 8.0
39.0 53.0 33.0
33.0 98.0 31.0
22.0 46.0 51.0
3.0 46.0 45.0
11.0 90.0 48.0
70.0 46.0 6.0
45.0 52.0 7.0
21.0 65.0 17.0
19.0 84.0 17.0
18.0 61.0 21.0
21.0 68.0 17.0
27.0 30.0 8.0
96.0 42.0 83.0
21.0 46.0 28.0
23.0 94.0 56.0
27.0 53.0 28.0
24.0 71.0 78.0
95.0 51.0 12.0
10.0 90.0 24.0
44.0 53.0 36.0
96.0 46.0 14.0
27.0 43.0 84.0
25.0 90.0 74.0
23.0 54.0 71.0
23.0 97.0 55.0
19.0 80.0 18.0
25.0 91.0 96.0
78.0 46.0 33.0
30.0 35.0 73.0
17.0 99.0 11.0
96.0 9.0 14.0
94.0 52.0 17.0
46.0 53.0 67.0
19.0 99.0 90.0
42.0 50.0 86.0
34.0 99.0 75.0
11.0 92.0 83.0
17.0 95.0 91.0
45.0 46.0 8.0
26.0 53.0 23.0
5.0 51.0 35.0
30.0 14.0 73.0
95.0 16.0 81.0
19.0 67.0 73.0
94.0 51.0 10.0
35.0 91.0 72.0
63.0 52.0 7.0
22.0 68.0 71.0
19.0 99.0 30.0
69.0 54.0 31.0
98.0 42.0 15.0
51.0 46.0 32.0
63.0 53.0 73.0
87.0 49.0 2.0
22.0 99.0 59.0
27.0 49.0 87.0
17.0 90.0 60.0
30.0 90.0 96.0
18.0 53.0 43.0
54.0 53.0 55.0
61.0 52.0 82.0
2.0 90.0 48.0
44.0 53.0 26.0
76.0 46.0 80.0
73.0 46.0 9.0
22.0 65.0 40.0
26.0 32.0 12.0
29.0 33.0 14.0
29.0 23.0 8.0
8.0 50.0 19.0
66.0 46.0 32.0
30.0 46.0 1.0
37.0 51.0 84.0
61.0 46.0 29.0
11.0 98.0 83.0
21.0 84.0 17.0
97.0 47.0 89.0
62.0 53.0 39.0
30.0 12.0 16.0
97.0 36.0 81.0
74.0 53.0 77.0
99.0 46.0 81.0
39.0 98.0 75.0
11.0 90.0 64.0
23.0 90.0 21.0
84.0 46.0 34.0
29.0 4.0 74.0
22.0 80.0 40.0
80.0 46.0 38.0
42.0 46.0 70.0
8.0 46.0 50.0
0.0 47.0 39.0
35.0 92.0 19.0
26.0 4.0 9.0
43.0 46.0 29.0
22.0 46.0 41.0
6.0 52.0 52.0
69.0 53.0 70.0
28.0 46.0 29.0
96.0 50.0 72.0
96.0 53.0 79.0
35.0 50.0 85.0
96.0 24.0 11.0
31.0 93.0 69.0
20.0 53.0 57.0
17.0 68.0 36.0
34.0 94.0 30.0
20.0 52.0 58.0
18.0 88.0 23.0
29.0 22.0 12.0
93.0 4.0 13.0
18.0 83.0 22.0
96.0 34.0 78.0
71.0 53.0 63.0
25.0 90.0 15.0
28.0 91.0 67.0
59.0 53.0 31.0
29.0 94.0 99.0
96.0 50.0 62.0
27.0 99.0 36.0
99.0 46.0 21.0
62.0 46.0 32.0
1.0 46.0 44.0
16.0 82.0 38.0
99.0 42.0 9.0
94.0 54.0 36.0
31.0 53.0 80.0
96.0 34.0 10.0
63.0 53.0 56.0
77.0 51.0 6.0
24.0 69.0 77.0
1.0 48.0 58.0
23.0 67.0 24.0
93.0 26.0 12.0
31.0 95.0 32.0
96.0 8.0 8.0
17.0 85.0 54.0
53.0 53.0 63.0
96.0 15.0 80.0
96.0 52.0 32.0
66.0 53.0 45.0
25.0 12.0 12.0
59.0 53.0 43.0
26.0 19.0 75.0
87.0 53.0 82.0
18.0 63.0 53.0
88.0 46.0 51.0
27.0 53.0 32.0
44.0 46.0 54.0
6.0 46.0 17.0
7.0 93.0 75.0
29.0 46.0 41.0
4.0 99.0 69.0
16.0 46.0 14.0
67.0 46.0 82.0
22.0 69.0 71.0
23.0 88.0 23.0
78.0 53.0 63.0
29.0 43.0 84.0
56.0 53.0 60.0
62.0 53.0 65.0
22.0 61.0 24.0
68.0 48.0 0.0
74.0 53.0 72.0
97.0 12.0 81.0
77.0 46.0 86.0
59.0 47.0 0.0
58.0 46.0 7.0
46.0 53.0 50.0
97.0 11.0 76.0
73.0 46.0 84.0
51.0 46.0 48.0
64.0 46.0 32.0
75.0 46.0 84.0
50.0 53.0 59.0
24.0 53.0 69.0
50.0 46.0 69.0
37.0 53.0 20.0
42.0 53.0 29.0
95.0 0.0 77.0
35.0 53.0 52.0
26.0 22.0 8.0
72.0 46.0 0.0
68.0 54.0 68.0
78.0 53.0 50.0
93.0 53.0 66.0
29.0 48.0 89.0
29.0 3.0 10.0
12.0 90.0 29.0
51.0 53.0 60.0
35.0 53.0 14.0
42.0 53.0 59.0
22.0 90.0 51.0
28.0 35.0 15.0
58.0 53.0 74.0
17.0 56.0 42.0
8.0 53.0 61.0
96.0 41.0 79.0
97.0 36.0 11.0
34.0 52.0 82.0
32.0 95.0 93.0
37.0 46.0 44.0
17.0 89.0 60.0
32.0 90.0 85.0
90.0 42.0 80.0
84.0 48.0 89.0
93.0 35.0 82.0
4.0 99.0 47.0
2.0 96.0 48.0
29.0 2.0 11.0
91.0 53.0 33.0
26.0 13.0 82.0
58.0 52.0 82.0
96.0 53.0 11.0
28.0 99.0 94.0
20.0 88.0 24.0
26.0 42.0 78.0
21.0 90.0 33.0
27.0 46.0 39.0
49.0 46.0 80.0
96.0 22.0 12.0
4.0 46.0 48.0
18.0 89.0 20.0
51.0 46.0 57.0
32.0 99.0 31.0
87.0 47.0 0.0
24.0 75.0 73.0
92.0 53.0 11.0
19.0 90.0 24.0
76.0 46.0 10.0
71.0 53.0 49.0
74.0 53.0 48.0
84.0 53.0 70.0
19.0 52.0 24.0
26.0 53.0 7.0
56.0 46.0 0.0
18.0 46.0 43.0
26.0 23.0 9.0
61.0 53.0 44.0
67.0 53.0 33.0
23.0 46.0 37.0
52.0 51.0 6.0
13.0 48.0 82.0
22.0 58.0 57.0
29.0 10.0 8.0
97.0 42.0 84.0
36.0 99.0 82.0
55.0 53.0 77.0
19.0 91.0 92.0
14.0 99.0 68.0
14.0 99.0 63.0
29.0 99.0 78.0
98.0 44.0 19.0
9.0 47.0 77.0
13.0 48.0 8.0
75.0 53.0 60.0
96.0 0.0 81.0
64.0 53.0 29.0
29.0 9.0 10.0
47.0 48.0 0.0
91.0 53.0 12.0
20.0 89.0 77.0
19.0 72.0 61.0
92.0 36.0 74.0
37.0 92.0 24.0
73.0 46.0 81.0
96.0 52.0 15.0
25.0 46.0 89.0
55.0 53.0 50.0
10.0 46.0 20.0
91.0 46.0 55.0
21.0 46.0 70.0
73.0 48.0 0.0
20.0 67.0 43.0
26.0 8.0 80.0
69.0 55.0 30.0
23.0 46.0 84.0
22.0 95.0 51.0
99.0 47.0 78.0
90.0 53.0 42.0
95.0 46.0 59.0
21.0 69.0 37.0
65.0 53.0 34.0
31.0 98.0 9.0
38.0 99.0 75.0
99.0 44.0 6.0
97.0 53.0 25.0
55.0 46.0 13.0
17.0 57.0 55.0
2.0 95.0 56.0
38.0 98.0 77.0
97.0 12.0 10.0
91.0 45.0 84.0
97.0 37.0 74.0
21.0 85.0 37.0
37.0 53.0 14.0
33.0 93.0 89.0
37.0 49.0 1.0
29.0 10.0 76.0
89.0 46.0 70.0
7.0 46.0 52.0
97.0 52.0 30.0
21.0 53.0 80.0
95.0 51.0 50.0
20.0 53.0 13.0
97.0 49.0 36.0
24.0 61.0 73.0
31.0 90.0 79.0
18.0 53.0 29.0
40.0 49.0 1.0
30.0 97.0 98.0
2.0 49.0 33.0
20.0 99.0 59.0
3.0 98.0 36.0
92.0 38.0 6.0
6.0 94.0 74.0
16.0 83.0 41.0
14.0 53.0 63.0
93.0 9.0 12.0
44.0 46.0 2.0
75.0 52.0 7.0
30.0 99.0 24.0
94.0 38.0 14.0
28.0 30.0 81.0
70.0 46.0 19.0
21.0 53.0 39.0
28.0 45.0 19.0
27.0 39.0 14.0
70.0 46.0 59.0
52.0 46.0 62.0
8.0 53.0 27.0
17.0 90.0 19.0
96.0 20.0 15.0
40.0 46.0 76.0
91.0 46.0 9.0
92.0 37.0 80.0
17.0 74.0 60.0
21.0 53.0 78.0
31.0 91.0 96.0
78.0 46.0 86.0
95.0 51.0 41.0
96.0 5.0 74.0
90.0 46.0 26.0
21.0 99.0 86.0
35.0 90.0 20.0
56.0 53.0 44.0
24.0 75.0 76.0
26.0 2.0 11.0
13.0 46.0 78.0
96.0 52.0 44.0
17.0 56.0 43.0
17.0 90.0 54.0
45.0 53.0 53.0
12.0 92.0 85.0
49.0 49.0 88.0
10.0 99.0 22.0
91.0 46.0 77.0
5.0 50.0 27.0
16.0 80.0 38.0
51.0 53.0 68.0
31.0 53.0 30.0
56.0 46.0 32.0
61.0 46.0 32.0
97.0 35.0 7.0
57.0 53.0 32.0
15.0 99.0 72.0
30.0 46.0 80.0
20.0 89.0 36.0
52.0 46.0 7.0
50.0 46.0 46.0
21.0 46.0 76.0
73.0 53.0 45.0
38.0 53.0 61.0
99.0 47.0 72.0
91.0 43.0 4.0
21.0 46.0 15.0
38.0 97.0 77.0
22.0 91.0 52.0
24.0 60.0 76.0
5.0 49.0 66.0
96.0 10.0 74.0
23.0 53.0 46.0
79.0 46.0 9.0
83.0 53.0 75.0
79.0 46.0 71.0
74.0 53.0 37.0
19.0 59.0 24.0
18.0 60.0 60.0
29.0 38.0 78.0
59.0 46.0 60.0
44.0 46.0 45.0
2.0 98.0 48.0
62.0 46.0 51.0
83.0 53.0 55.0
91.0 42.0 8.0
34.0 97.0 30.0
34.0 53.0 21.0
20.0 69.0 43.0
20.0 68.0 53.0
39.0 46.0 67.0
94.0 46.0 83.0
96.0 46.0 85.0
10.0 99.0 41.0
92.0 46.0 63.0
2.0 91.0 49.0
94.0 51.0 18.0
17.0 58.0 55.0
49.0 53.0 60.0
73.0 46.0 16.0
37.0 46.0 39.0
18.0 53.0 20.0
26.0 14.0 7.0
67.0 53.0 75.0
21.0 90.0 19.0
93.0 38.0 7.0
60.0 46.0 7.0
55.0 46.0 70.0
27.0 49.0 88.0
87.0 50.0 86.0
86.0 53.0 31.0
29.0 15.0 13.0
90.0 46.0 70.0
22.0 89.0 79.0
82.0 46.0 72.0
32.0 99.0 23.0
22.0 53.0 52.0
97.0 46.0 38.0
91.0 53.0 75.0
94.0 53.0 62.0
95.0 23.0 8.0
23.0 46.0 58.0
35.0 46.0 38.0
32.0 93.0 70.0
95.0 26.0 74.0
26.0 10.0 14.0
24.0 90.0 40.0
32.0 45.0 8.0
91.0 53.0 50.0
36.0 90.0 23.0
9.0 53.0 59.0
23.0 45.0 8.0
17.0 53.0 16.0
1.0 46.0 31.0
94.0 44.0 84.0
26.0 26.0 11.0
98.0 46.0 23.0
29.0 0.0 78.0
96.0 18.0 75.0
90.0 44.0 15.0
7.0 99.0 66.0
34.0 46.0 57.0
7.0 90.0 72.0
7.0 90.0 60.0
94.0 39.0 80.0
21.0 77.0 38.0
26.0 35.0 76.0
20.0 90.0 68.0
97.0 38.0 13.0
35.0 94.0 71.0
55.0 53.0 49.0
74.0 53.0 44.0
6.0 94.0 27.0
27.0 91.0 97.0
36.0 46.0 84.0
16.0 53.0 18.0
44.0 46.0 35.0
4.0 47.0 67.0
23.0 61.0 20.0
96.0 10.0 14.0
30.0 11.0 81.0
97.0 48.0 0.0
72.0 53.0 8.0
29.0 6.0 13.0
29.0 34.0 74.0
54.0 53.0 35.0
93.0 53.0 76.0
78.0 46.0 31.0
14.0 90.0 83.0
28.0 15.0 81.0
11.0 53.0 47.0
71.0 54.0 39.0
97.0 38.0 9.0
92.0 13.0 11.0
94.0 39.0 78.0
60.0 46.0 25.0
18.0 76.0 53.0
92.0 46.0 82.0
51.0 53.0 53.0
97.0 49.0 89.0
22.0 60.0 57.0
4.0 99.0 33.0
16.0 53.0 76.0
26.0 33.0 74.0
24.0 95.0 42.0
72.0 53.0 70.0
62.0 53.0 32.0
31.0 90.0 74.0
25.0 98.0 62.0
21.0 62.0 37.0
56.0 53.0 37.0
8.0 97.0 78.0
22.0 83.0 39.0
10.0 93.0 20.0
32.0 46.0 71.0
27.0 53.0 62.0
2.0 96.0 56.0
86.0 53.0 59.0
53.0 53.0 26.0
28.0 50.0 4.0
19.0 56.0 36.0
44.0 53.0 8.0
97.0 52.0 67.0
95.0 2.0 8.0
21.0 89.0 71.0
22.0 52.0 56.0
6.0 97.0 27.0
20.0 46.0 24.0
19.0 90.0 35.0
13.0 99.0 24.0
31.0 46.0 34.0
2.0 95.0 54.0
25.0 35.0 9.0
17.0 99.0 38.0
85.0 46.0 59.0
94.0 54.0 15.0
68.0 53.0 26.0
96.0 5.0 8.0
17.0 96.0 12.0
3.0 90.0 56.0
94.0 53.0 33.0
54.0 46.0 81.0
77.0 47.0 89.0
15.0 90.0 45.0
25.0 46.0 4.0
29.0 16.0 79.0
28.0 53.0 39.0
23.0 90.0 95.0
71.0 55.0 63.0
22.0 75.0 17.0
17.0 65.0 43.0
29.0 20.0 10.0
30.0 12.0 13.0
93.0 53.0 7.0
93.0 35.0 74.0
9.0 53.0 37.0
52.0 46.0 87.0
76.0 46.0 48.0
93.0 46.0 20.0
64.0 53.0 62.0
94.0 51.0 36.0
32.0 46.0 61.0
86.0 46.0 68.0
81.0 46.0 19.0
17.0 46.0 68.0
96.0 53.0 67.0
11.0 90.0 62.0
27.0 38.0 79.0
9.0 90.0 60.0
29.0 99.0 81.0
77.0 53.0 72.0
17.0 90.0 64.0
80.0 53.0 21.0
46.0 46.0 4.0
5.0 92.0 71.0
32.0 46.0 37.0
73.0 53.0 19.0
26.0 43.0 70.0
42.0 46.0 46.0
30.0 37.0 82.0
29.0 2.0 15.0
99.0 48.0 82.0
96.0 9.0 9.0
23.0 59.0 21.0
84.0 46.0 35.0
3.0 94.0 37.0
28.0 22.0 81.0
22.0 91.0 8.0
92.0 14.0 76.0
29.0 29.0 9.0
31.0 46.0 13.0
94.0 38.0 72.0
26.0 53.0 75.0
77.0 53.0 68.0
95.0 38.0 14.0
22.0 53.0 19.0
94.0 21.0 74.0
29.0 90.0 82.0
7.0 91.0 75.0
29.0 34.0 79.0
10.0 46.0 67.0
61.0 46.0 70.0
32.0 44.0 12.0
82.0 53.0 58.0
68.0 54.0 70.0
19.0 59.0 43.0
30.0 35.0 10.0
29.0 7.0 74.0
23.0 53.0 8.0
74.0 53.0 13.0
31.0 97.0 32.0
69.0 54.0 50.0
20.0 52.0 41.0
10.0 46.0 25.0
87.0 46.0 75.0
26.0 14.0 72.0
31.0 42.0 70.0
21.0 88.0 25.0
88.0 53.0 40.0
68.0 46.0 24.0
29.0 46.0 9.0
25.0 12.0 75.0
32.0 46.0 80.0
84.0 53.0 53.0
27.0 4.0 8.0
95.0 38.0 6.0
31.0 99.0 86.0
88.0 53.0 71.0
29.0 31.0 15.0
16.0 46.0 33.0
19.0 46.0 20.0
88.0 46.0 0.0
77.0 46.0 29.0
40.0 46.0 22.0
18.0 53.0 41.0
96.0 3.0 12.0
99.0 45.0 77.0
54.0 46.0 72.0
91.0 42.0 83.0
32.0 93.0 12.0
40.0 46.0 34.0
21.0 98.0 8.0
79.0 46.0 5.0
41.0 46.0 74.0
21.0 88.0 41.0
20.0 99.0 70.0
5.0 46.0 56.0
96.0 28.0 75.0
99.0 46.0 12.0
93.0 26.0 79.0
70.0 53.0 29.0
98.0 49.0 4.0
26.0 29.0 9.0
1.0 48.0 35.0
74.0 52.0 82.0
77.0 46.0 54.0
23.0 68.0 18.0
76.0 53.0 60.0
74.0 46.0 4.0
25.0 59.0 75.0
93.0 53.0 34.0
29.0 35.0 6.0
18.0 90.0 44.0
20.0 85.0 53.0
99.0 42.0 12.0
24.0 42.0 82.0
2.0 50.0 41.0
22.0 94.0 7.0
29.0 53.0 22.0
29.0 17.0 79.0
79.0 46.0 7.0
2.0 46.0 29.0
18.0 55.0 60.0
21.0 52.0 37.0
1.0 46.0 41.0
4.0 46.0 21.0
28.0 93.0 98.0
97.0 14.0 80.0
6.0 50.0 63.0
80.0 47.0 89.0
18.0 85.0 23.0
99.0 45.0 15.0
49.0 46.0 32.0
30.0 14.0 8.0
75.0 49.0 87.0
5.0 99.0 40.0
27.0 27.0 15.0
34.0 93.0 17.0
37.0 46.0 0.0
97.0 13.0 82.0
94.0 0.0 12.0
66.0 53.0 72.0
25.0 72.0 76.0
35.0 97.0 85.0
14.0 46.0 64.0
81.0 50.0 85.0
20.0 55.0 72.0
38.0 53.0 72.0
93.0 0.0 76.0
19.0 85.0 73.0
93.0 46.0 5.0
26.0 93.0 64.0
16.0 46.0 25.0
86.0 51.0 83.0
99.0 46.0 82.0
78.0 49.0 1.0
7.0 90.0 36.0
89.0 46.0 21.0
93.0 46.0 73.0
16.0 97.0 12.0
6.0 46.0 26.0
22.0 71.0 18.0
6.0 95.0 29.0
31.0 46.0 63.0
69.0 46.0 62.0
22.0 90.0 57.0
95.0 46.0 41.0
10.0 51.0 22.0
92.0 35.0 13.0
25.0 12.0 10.0
44.0 46.0 79.0
12.0 51.0 71.0
45.0 53.0 20.0
14.0 90.0 61.0
28.0 99.0 70.0
29.0 42.0 16.0
17.0 52.0 58.0
22.0 52.0 81.0
56.0 46.0 15.0
34.0 46.0 89.0
37.0 46.0 13.0
93.0 16.0 79.0
24.0 97.0 59.0
14.0 49.0 81.0
83.0 46.0 44.0
58.0 46.0 71.0
29.0 29.0 74.0
9.0 96.0 21.0
92.0 46.0 6.0
96.0 13.0 16.0
78.0 46.0 19.0
19.0 53.0 17.0
97.0 50.0 7.0
21.0 46.0 87.0
99.0 46.0 4.0
19.0 64.0 43.0
28.0 53.0 75.0
27.0 39.0 9.0
96.0 46.0 44.0
27.0 46.0 74.0
66.0 53.0 51.0
47.0 53.0 71.0
37.0 51.0 83.0
33.0 47.0 89.0
93.0 46.0 10.0
17.0 50.0 82.0
98.0 49.0 64.0
34.0 94.0 87.0
17.0 53.0 75.0
37.0 92.0 73.0
17.0 66.0 36.0
25.0 46.0 41.0
92.0 37.0 82.0
97.0 46.0 4.0
98.0 49.0 57.0
74.0 46.0 20.0
95.0 9.0 74.0
99.0 48.0 56.0
23.0 53.0 28.0
20.0 56.0 78.0
43.0 46.0 49.0
71.0 53.0 20.0
68.0 53.0 47.0
93.0 15.0 8.0
96.0 37.0 72.0
70.0 53.0 41.0
59.0 46.0 4.0
22.0 53.0 67.0
97.0 42.0 7.0
52.0 53.0 11.0
44.0 53.0 53.0
25.0 46.0 29.0
74.0 46.0 81.0
20.0 75.0 60.0
11.0 46.0 34.0
73.0 53.0 26.0
40.0 46.0 57.0
47.0 46.0 15.0
17.0 98.0 11.0
20.0 75.0 36.0
29.0 33.0 8.0
21.0 74.0 71.0
43.0 46.0 1.0
96.0 6.0 79.0
28.0 29.0 81.0
39.0 53.0 73.0
71.0 54.0 59.0
20.0 90.0 72.0
23.0 45.0 75.0
93.0 6.0 12.0
22.0 53.0 56.0
10.0 53.0 62.0
59.0 53.0 33.0
98.0 45.0 70.0
89.0 53.0 77.0
25.0 95.0 5.0
17.0 46.0 19.0
27.0 38.0 15.0
53.0 47.0 89.0
95.0 26.0 81.0
44.0 46.0 14.0
95.0 50.0 3.0
24.0 46.0 13.0
94.0 38.0 10.0
63.0 53.0 33.0
51.0 53.0 46.0
29.0 46.0 27.0
83.0 53.0 51.0
90.0 43.0 80.0
23.0 85.0 21.0
5.0 97.0 30.0
22.0 79.0 58.0
16.0 56.0 38.0
74.0 53.0 9.0
27.0 20.0 15.0
67.0 46.0 8.0
3.0 90.0 57.0
29.0 90.0 78.0
29.0 23.0 12.0
95.0 54.0 58.0
32.0 43.0 4.0
94.0 10.0 8.0
6.0 47.0 17.0
96.0 24.0 15.0
98.0 46.0 13.0
96.0 26.0 75.0
27.0 96.0 66.0
20.0 83.0 25.0
96.0 33.0 13.0
86.0 46.0 56.0
70.0 55.0 45.0
21.0 71.0 54.0
18.0 79.0 19.0
12.0 53.0 49.0
26.0 15.0 75.0
16.0 79.0 56.0
17.0 90.0 40.0
28.0 40.0 14.0
47.0 53.0 34.0
29.0 32.0 12.0
81.0 46.0 84.0
28.0 46.0 77.0
19.0 78.0 77.0
40.0 46.0 87.0
8.0 53.0 55.0
88.0 46.0 19.0
17.0 82.0 42.0
29.0 41.0 13.0
21.0 99.0 50.0
91.0 46.0 73.0
18.0 55.0 43.0
51.0 46.0 11.0
96.0 42.0 18.0
19.0 70.0 61.0
96.0 46.0 70.0
46.0 46.0 21.0
95.0 7.0 8.0
21.0 99.0 85.0
19.0 56.0 61.0
17.0 99.0 28.0
14.0 90.0 45.0
25.0 91.0 39.0
93.0 6.0 80.0
13.0 99.0 34.0
20.0 90.0 28.0
22.0 59.0 24.0
83.0 51.0 5.0
62.0 53.0 47.0
29.0 5.0 75.0
64.0 46.0 52.0
96.0 2.0 79.0
23.0 55.0 19.0
6.0 53.0 52.0
41.0 53.0 60.0
22.0 87.0 71.0
97.0 38.0 77.0
29.0 46.0 59.0
93.0 31.0 12.0
28.0 16.0 15.0
89.0 53.0 24.0
21.0 66.0 17.0
32.0 43.0 77.0
93.0 9.0 76.0
59.0 46.0 49.0
20.0 52.0 23.0
94.0 17.0 15.0
42.0 46.0 37.0
84.0 48.0 89.0
21.0 58.0 17.0
19.0 46.0 42.0
31.0 91.0 69.0
19.0 90.0 40.0
56.0 53.0 36.0
17.0 74.0 54.0
5.0 99.0 31.0
23.0 99.0 90.0
30.0 13.0 10.0
22.0 70.0 58.0
31.0 51.0 84.0
23.0 98.0 56.0
22.0 74.0 55.0
56.0 46.0 2.0
6.0 46.0 19.0
12.0 46.0 77.0
95.0 51.0 55.0
43.0 46.0 61.0
71.0 53.0 51.0
28.0 97.0 98.0
23.0 95.0 45.0
26.0 7.0 11.0
97.0 15.0 11.0
84.0 46.0 65.0
71.0 55.0 53.0
13.0 90.0 55.0
22.0 94.0 48.0
23.0 53.0 22.0
94.0 54.0 59.0
30.0 37.0 76.0
22.0 47.0 89.0
36.0 96.0 21.0
20.0 70.0 53.0
12.0 46.0 21.0
20.0 77.0 25.0
26.0 27.0 12.0
96.0 52.0 31.0
35.0 46.0 60.0
19.0 46.0 79.0
94.0 42.0 75.0
19.0 59.0 77.0
78.0 53.0 51.0
30.0 93.0 33.0
93.0 20.0 10.0
3.0 46.0 34.0
22.0 80.0 39.0
30.0 53.0 33.0
51.0 53.0 32.0
5.0 99.0 45.0
23.0 53.0 72.0
47.0 53.0 8.0
96.0 53.0 34.0
14.0 46.0 33.0
6.0 90.0 57.0
93.0 32.0 9.0
83.0 46.0 55.0
97.0 50.0 54.0
98.0 49.0 2.0
30.0 35.0 16.0
17.0 78.0 54.0
37.0 49.0 87.0
63.0 46.0 70.0
96.0 42.0 76.0
93.0 38.0 9.0
70.0 54.0 57.0
24.0 90.0 67.0
86.0 53.0 65.0
33.0 98.0 89.0
44.0 53.0 78.0
32.0 53.0 37.0
19.0 82.0 36.0
6.0 53.0 36.0
28.0 93.0 34.0
28.0 34.0 8.0
9.0 53.0 38.0
97.0 13.0 12.0
13.0 46.0 30.0
29.0 99.0 83.0
53.0 53.0 72.0
21.0 52.0 79.0
12.0 97.0 85.0
40.0 46.0 11.0
26.0 8.0 77.0
77.0 53.0 59.0
2.0 91.0 57.0
2.0 93.0 43.0
23.0 80.0 23.0
8.0 99.0 40.0
16.0 56.0 40.0
96.0 22.0 81.0
40.0 46.0 72.0
58.0 53.0 37.0
26.0 46.0 70.0
74.0 46.0 1.0
6.0 52.0 55.0
97.0 13.0 16.0
11.0 99.0 44.0
18.0 91.0 10.0
22.0 85.0 79.0
26.0 2.0 74.0
35.0 93.0 29.0
29.0 31.0 80.0
31.0 99.0 24.0
50.0 53.0 75.0
96.0 40.0 78.0
67.0 46.0 56.0
30.0 53.0 11.0
25.0 72.0 76.0
36.0 98.0 29.0
14.0 90.0 18.0
98.0 42.0 70.0
66.0 51.0 5.0
78.0 46.0 40.0
29.0 17.0 74.0
93.0 25.0 77.0
92.0 38.0 77.0
13.0 53.0 56.0
23.0 56.0 20.0
11.0 99.0 51.0
69.0 55.0 64.0
32.0 46.0 84.0
92.0 11.0 79.0
22.0 86.0 56.0
93.0 28.0 74.0
23.0 42.0 75.0
10.0 90.0 43.0
7.0 49.0 69.0
35.0 93.0 71.0
94.0 29.0 8.0
19.0 75.0 18.0
25.0 36.0 80.0
31.0 42.0 15.0
16.0 90.0 25.0
5.0 46.0 24.0
69.0 55.0 35.0
14.0 99.0 65.0
92.0 46.0 19.0
95.0 51.0 34.0
22.0 70.0 71.0
24.0 79.0 77.0
58.0 53.0 51.0
19.0 66.0 36.0
25.0 91.0 63.0
22.0 68.0 55.0
37.0 46.0 7.0
28.0 90.0 69.0
60.0 53.0 9.0
16.0 81.0 58.0
29.0 46.0 72.0
25.0 90.0 86.0
47.0 53.0 80.0
22.0 62.0 39.0
22.0 95.0 49.0
48.0 46.0 81.0
26.0 46.0 8.0
27.0 99.0 67.0
26.0 9.0 74.0
23.0 93.0 46.0
2.0 46.0 60.0
83.0 53.0 7.0
18.0 99.0 31.0
19.0 83.0 77.0
27.0 46.0 26.0
92.0 53.0 22.0
42.0 52.0 7.0
42.0 49.0 89.0
21.0 75.0 54.0
85.0 46.0 53.0
66.0 46.0 24.0
78.0 53.0 58.0
21.0 53.0 41.0
28.0 42.0 70.0
20.0 94.0 92.0
21.0 61.0 78.0
27.0 39.0 77.0
21.0 64.0 60.0
19.0 56.0 18.0
18.0 88.0 60.0
22.0 69.0 18.0
20.0 74.0 72.0
20.0 54.0 77.0
72.0 46.0 74.0
30.0 46.0 59.0
30.0 38.0 82.0
12.0 91.0 84.0
37.0 51.0 6.0
17.0 90.0 78.0
18.0 89.0 43.0
27.0 49.0 2.0
19.0 99.0 48.0
26.0 31.0 14.0
27.0 90.0 72.0
93.0 30.0 10.0
75.0 46.0 17.0
10.0 46.0 65.0
13.0 53.0 43.0
16.0 79.0 40.0
19.0 99.0 87.0
47.0 46.0 83.0
95.0 14.0 73.0
94.0 46.0 25.0
69.0 50.0 86.0
23.0 66.0 18.0
6.0 99.0 61.0
91.0 51.0 84.0
43.0 46.0 84.0
2.0 46.0 32.0
31.0 99.0 29.0
97.0 12.0 72.0
64.0 53.0 68.0
19.0 90.0 53.0
22.0 62.0 71.0
81.0 53.0 29.0
24.0 90.0 19.0
76.0 46.0 27.0
5.0 51.0 50.0
13.0 46.0 66.0
21.0 77.0 54.0
34.0 46.0 12.0
95.0 51.0 68.0
96.0 43.0 4.0
32.0 44.0 13.0
22.0 84.0 55.0
84.0 50.0 86.0
58.0 48.0 0.0
33.0 94.0 31.0
24.0 96.0 61.0
20.0 85.0 17.0
94.0 53.0 67.0
33.0 92.0 14.0
35.0 53.0 10.0
69.0 46.0 52.0
25.0 44.0 19.0
92.0 13.0 76.0
23.0 55.0 23.0
35.0 97.0 18.0
20.0 46.0 7.0
41.0 53.0 72.0
55.0 46.0 27.0
94.0 9.0 8.0
7.0 49.0 72.0
99.0 46.0 34.0
30.0 14.0 15.0
64.0 46.0 8.0
6.0 50.0 22.0
91.0 53.0 52.0
55.0 53.0 41.0
97.0 46.0 8.0
26.0 92.0 5.0
64.0 50.0 3.0
24.0 46.0 55.0
56.0 46.0 76.0
89.0 53.0 82.0
65.0 46.0 67.0
26.0 99.0 97.0
34.0 99.0 25.0
23.0 44.0 78.0
86.0 46.0 31.0
8.0 46.0 67.0
23.0 44.0 77.0
37.0 46.0 6.0
22.0 46.0 43.0
26.0 97.0 38.0
57.0 51.0 5.0
66.0 46.0 19.0
26.0 24.0 74.0
7.0 99.0 36.0
94.0 53.0 31.0
77.0 53.0 66.0
37.0 92.0 81.0
92.0 13.0 72.0
39.0 46.0 55.0
67.0 55.0 45.0
94.0 52.0 45.0
25.0 46.0 84.0
24.0 59.0 76.0
28.0 46.0 15.0
21.0 95.0 93.0
96.0 52.0 12.0
97.0 46.0 37.0
88.0 46.0 32.0
24.0 90.0 37.0
50.0 46.0 51.0
29.0 2.0 76.0
79.0 46.0 23.0
29.0 46.0 14.0
4.0 51.0 42.0
19.0 88.0 75.0
92.0 53.0 7.0
93.0 34.0 15.0
65.0 46.0 16.0
41.0 48.0 89.0
29.0 53.0 49.0
95.0 51.0 30.0
0.0 48.0 48.0
80.0 46.0 63.0
24.0 46.0 58.0
29.0 27.0 74.0
17.0 53.0 59.0
54.0 53.0 48.0
17.0 90.0 50.0
37.0 53.0 42.0
9.0 46.0 22.0
35.0 46.0 68.0
93.0 38.0 16.0
46.0 53.0 22.0
28.0 46.0 79.0
26.0 15.0 77.0
23.0 49.0 88.0
94.0 46.0 62.0
22.0 79.0 79.0
20.0 80.0 36.0
20.0 87.0 53.0
34.0 94.0 16.0
18.0 54.0 43.0
99.0 46.0 62.0
93.0 21.0 80.0
27.0 46.0 15.0
96.0 28.0 8.0
28.0 48.0 89.0
6.0 97.0 72.0
40.0 53.0 43.0
59.0 46.0 46.0
67.0 53.0 24.0
30.0 35.0 15.0
24.0 46.0 16.0
86.0 53.0 73.0
24.0 46.0 46.0
6.0 99.0 31.0
93.0 5.0 10.0
14.0 53.0 61.0
68.0 53.0 41.0
95.0 54.0 56.0
18.0 77.0 60.0
27.0 20.0 81.0
93.0 24.0 74.0
94.0 52.0 24.0
19.0 46.0 31.0
99.0 47.0 77.0
24.0 53.0 57.0
89.0 53.0 73.0
17.0 48.0 3.0
28.0 95.0 66.0
92.0 36.0 8.0
72.0 55.0 54.0
50.0 53.0 55.0
71.0 46.0 65.0
71.0 46.0 30.0
74.0 53.0 17.0
15.0 99.0 87.0
71.0 55.0 37.0
75.0 49.0 1.0
93.0 17.0 78.0
26.0 30.0 76.0
29.0 30.0 75.0
19.0 90.0 36.0
30.0 37.0 6.0
21.0 90.0 87.0
54.0 46.0 80.0
50.0 50.0 2.0
28.0 46.0 55.0
77.0 53.0 15.0
79.0 46.0 10.0
18.0 53.0 76.0
17.0 81.0 59.0
33.0 53.0 59.0
85.0 53.0 32.0
70.0 51.0 84.0
2.0 50.0 40.0
17.0 73.0 43.0
6.0 47.0 72.0
34.0 46.0 21.0
26.0 21.0 77.0
24.0 77.0 76.0
7.0 90.0 63.0
85.0 48.0 0.0
73.0 46.0 12.0
23.0 54.0 22.0
71.0 53.0 7.0
4.0 46.0 32.0
22.0 53.0 39.0
99.0 43.0 81.0
5.0 99.0 58.0
32.0 93.0 13.0
19.0 61.0 53.0
21.0 71.0 54.0
10.0 99.0 46.0
3.0 97.0 62.0
72.0 46.0 59.0
86.0 46.0 38.0
15.0 46.0 57.0
21.0 59.0 42.0
10.0 48.0 11.0
26.0 90.0 91.0
74.0 46.0 21.0
95.0 54.0 26.0
33.0 50.0 4.0
81.0 50.0 4.0
69.0 46.0 79.0
49.0 53.0 10.0
70.0 46.0 56.0
18.0 54.0 61.0
26.0 19.0 13.0
21.0 53.0 14.0
68.0 53.0 43.0
20.0 75.0 53.0
15.0 90.0 85.0
24.0 90.0 73.0
90.0 53.0 25.0
33.0 90.0 90.0
24.0 47.0 0.0
94.0 11.0 7.0
93.0 18.0 78.0
69.0 52.0 82.0
32.0 44.0 75.0
29.0 37.0 6.0
19.0 87.0 73.0
61.0 53.0 63.0
25.0 36.0 72.0
91.0 53.0 8.0
38.0 48.0 0.0
4.0 49.0 64.0
21.0 52.0 41.0
2.0 99.0 52.0
53.0 46.0 74.0
11.0 53.0 65.0
11.0 46.0 58.0
26.0 47.0 89.0
29.0 25.0 78.0
17.0 76.0 36.0
63.0 53.0 19.0
23.0 83.0 71.0
29.0 14.0 16.0
76.0 46.0 83.0
29.0 22.0 77.0
92.0 12.0 73.0
13.0 90.0 23.0
5.0 94.0 72.0
39.0 53.0 69.0
19.0 57.0 73.0
36.0 99.0 78.0
16.0 99.0 13.0
44.0 53.0 66.0
91.0 44.0 19.0
93.0 22.0 12.0
27.0 92.0 4.0
76.0 53.0 24.0
18.0 90.0 81.0
98.0 49.0 86.0
29.0 35.0 13.0
38.0 91.0 78.0
94.0 51.0 51.0
28.0 30.0 8.0
25.0 90.0 7.0
58.0 53.0 23.0
69.0 55.0 55.0
68.0 53.0 35.0
69.0 54.0 41.0
16.0 50.0 9.0
23.0 42.0 14.0
29.0 36.0 16.0
69.0 49.0 1.0
61.0 46.0 43.0
26.0 25.0 14.0
31.0 44.0 19.0
70.0 54.0 59.0
36.0 95.0 21.0
18.0 70.0 36.0
22.0 90.0 15.0
29.0 17.0 13.0
33.0 90.0 73.0
8.0 93.0 23.0
70.0 55.0 59.0
15.0 46.0 79.0
20.0 61.0 43.0
3.0 46.0 42.0
96.0 3.0 74.0
23.0 69.0 19.0
57.0 46.0 52.0
15.0 90.0 87.0
14.0 46.0 50.0
3.0 92.0 62.0
90.0 42.0 77.0
23.0 53.0 21.0
16.0 59.0 41.0
20.0 50.0 85.0
97.0 46.0 18.0
21.0 84.0 38.0
19.0 55.0 53.0
51.0 46.0 9.0
95.0 46.0 4.0
79.0 46.0 40.0
99.0 46.0 66.0
99.0 46.0 58.0
96.0 7.0 79.0
29.0 34.0 76.0
38.0 46.0 82.0
17.0 53.0 38.0
55.0 46.0 72.0
25.0 57.0 75.0
98.0 49.0 13.0
26.0 26.0 14.0
26.0 30.0 14.0
59.0 53.0 57.0
19.0 52.0 22.0
28.0 53.0 43.0
82.0 52.0 82.0
60.0 50.0 86.0
23.0 89.0 71.0
25.0 99.0 63.0
94.0 23.0 74.0
70.0 53.0 21.0
20.0 99.0 78.0
3.0 46.0 52.0
25.0 68.0 75.0
94.0 29.0 8.0
55.0 53.0 9.0
20.0 73.0 53.0
15.0 53.0 46.0
21.0 90.0 22.0
55.0 53.0 63.0
18.0 63.0 19.0
53.0 53.0 76.0
59.0 53.0 54.0
18.0 90.0 42.0
26.0 35.0 8.0
19.0 66.0 24.0
26.0 5.0 9.0
5.0 91.0 70.0
80.0 52.0 7.0
27.0 45.0 70.0
20.0 63.0 43.0
83.0 46.0 7.0
19.0 71.0 36.0
90.0 53.0 15.0
91.0 46.0 7.0
2.0 97.0 41.0
81.0 50.0 3.0
26.0 42.0 17.0
50.0 53.0 65.0
54.0 53.0 45.0
20.0 90.0 56.0
26.0 99.0 71.0
90.0 45.0 80.0
35.0 94.0 18.0
96.0 18.0 76.0
93.0 10.0 77.0
21.0 90.0 60.0
29.0 46.0 70.0
62.0 53.0 10.0
19.0 53.0 43.0
25.0 36.0 14.0
30.0 90.0 23.0
28.0 13.0 6.0
30.0 36.0 74.0
82.0 53.0 72.0
66.0 53.0 70.0
11.0 98.0 83.0
81.0 46.0 51.0
49.0 50.0 85.0
13.0 99.0 28.0
34.0 97.0 17.0
83.0 53.0 40.0
95.0 51.0 11.0
44.0 53.0 48.0
3.0 97.0 38.0
97.0 11.0 7.0
99.0 48.0 49.0
16.0 46.0 62.0
57.0 53.0 70.0
4.0 90.0 63.0
24.0 99.0 6.0
59.0 53.0 52.0
42.0 46.0 21.0
57.0 53.0 63.0
98.0 46.0 12.0
84.0 53.0 24.0
2.0 92.0 59.0
91.0 42.0 4.0
96.0 27.0 15.0
20.0 90.0 10.0
97.0 53.0 79.0
73.0 46.0 32.0
22.0 53.0 31.0
16.0 53.0 32.0
23.0 63.0 20.0
17.0 69.0 54.0
62.0 46.0 0.0
8.0 99.0 77.0
25.0 67.0 73.0
20.0 75.0 43.0
20.0 63.0 61.0
23.0 91.0 45.0
32.0 46.0 2.0
18.0 90.0 60.0
22.0 90.0 77.0
13.0 91.0 15.0
78.0 48.0 89.0
22.0 99.0 79.0
40.0 53.0 51.0
46.0 53.0 27.0
20.0 99.0 74.0
6.0 53.0 53.0
14.0 99.0 87.0
90.0 42.0 70.0
21.0 98.0 93.0
3.0 90.0 66.0
20.0 60.0 77.0
6.0 51.0 30.0
25.0 12.0 78.0
7.0 48.0 74.0
83.0 46.0 59.0
92.0 42.0 10.0
18.0 79.0 36.0
91.0 46.0 15.0
95.0 36.0 16.0
96.0 18.0 8.0
23.0 76.0 21.0
19.0 77.0 75.0
75.0 46.0 35.0
69.0 53.0 9.0
52.0 47.0 0.0
4.0 92.0 68.0
69.0 53.0 43.0
94.0 53.0 12.0
48.0 53.0 63.0
13.0 51.0 74.0
18.0 90.0 30.0
11.0 93.0 83.0
36.0 46.0 50.0
79.0 46.0 88.0
18.0 70.0 23.0
12.0 94.0 17.0
56.0 46.0 60.0
27.0 46.0 13.0
66.0 53.0 39.0
30.0 92.0 33.0
87.0 46.0 34.0
21.0 66.0 42.0
81.0 53.0 10.0
18.0 50.0 6.0
15.0 53.0 44.0
29.0 46.0 7.0
76.0 53.0 12.0
36.0 46.0 10.0
87.0 53.0 40.0
19.0 99.0 13.0
17.0 64.0 54.0
48.0 53.0 15.0
28.0 23.0 81.0
88.0 46.0 27.0
89.0 53.0 17.0
42.0 46.0 4.0
61.0 50.0 85.0
21.0 82.0 71.0
73.0 53.0 48.0
94.0 52.0 26.0
96.0 32.0 75.0
16.0 56.0 39.0
92.0 42.0 76.0
29.0 53.0 26.0
63.0 46.0 65.0
21.0 86.0 17.0
26.0 46.0 12.0
94.0 5.0 74.0
23.0 83.0 23.0
94.0 23.0 81.0
30.0 53.0 17.0
94.0 51.0 14.0
83.0 53.0 62.0
16.0 61.0 40.0
95.0 28.0 81.0
19.0 53.0 71.0
23.0 53.0 31.0
20.0 46.0 87.0
92.0 46.0 31.0
76.0 46.0 53.0
28.0 50.0 85.0
21.0 89.0 25.0
13.0 99.0 16.0
25.0 90.0 17.0
46.0 46.0 0.0
37.0 46.0 89.0
81.0 53.0 73.0
23.0 78.0 78.0
17.0 83.0 54.0
15.0 50.0 11.0
38.0 46.0 49.0
19.0 60.0 17.0
41.0 46.0 37.0
36.0 90.0 25.0
36.0 53.0 45.0
19.0 70.0 36.0
11.0 90.0 31.0
24.0 68.0 77.0
84.0 53.0 48.0
27.0 90.0 4.0
29.0 96.0 4.0
26.0 6.0 74.0
27.0 99.0 96.0
64.0 53.0 74.0
31.0 97.0 10.0
17.0 65.0 58.0
18.0 86.0 18.0
43.0 46.0 69.0
25.0 12.0 82.0
77.0 51.0 83.0
29.0 90.0 6.0
20.0 99.0 46.0
6.0 51.0 60.0
58.0 46.0 28.0
21.0 78.0 41.0
19.0 76.0 24.0
11.0 95.0 19.0
48.0 46.0 16.0
49.0 53.0 63.0
18.0 73.0 36.0
96.0 40.0 9.0
30.0 46.0 67.0
51.0 50.0 87.0
16.0 89.0 41.0
14.0 91.0 87.0
83.0 53.0 9.0
28.0 7.0 74.0
29.0 33.0 75.0
19.0 52.0 18.0
83.0 53.0 11.0
95.0 32.0 8.0
94.0 46.0 86.0
16.0 61.0 55.0
24.0 46.0 82.0
22.0 46.0 62.0
23.0 88.0 72.0
22.0 63.0 71.0
99.0 42.0 84.0
35.0 53.0 38.0
20.0 90.0 53.0
99.0 46.0 38.0
30.0 42.0 73.0
3.0 92.0 66.0
18.0 56.0 43.0
18.0 65.0 36.0
35.0 46.0 88.0
30.0 12.0 82.0
22.0 55.0 39.0
24.0 93.0 42.0
39.0 50.0 85.0
12.0 99.0 69.0
53.0 53.0 47.0
2.0 91.0 43.0
79.0 53.0 46.0
98.0 49.0 73.0
30.0 53.0 74.0
94.0 53.0 51.0
42.0 53.0 58.0
22.0 75.0 40.0
29.0 23.0 80.0
33.0 99.0 78.0
89.0 47.0 0.0
25.0 89.0 74.0
63.0 53.0 65.0
5.0 90.0 59.0
82.0 53.0 64.0
28.0 46.0 31.0
14.0 99.0 72.0
9.0 94.0 79.0
20.0 46.0 31.0
96.0 18.0 15.0
21.0 76.0 78.0
16.0 68.0 56.0
19.0 99.0 37.0
96.0 43.0 19.0
30.0 92.0 6.0
23.0 88.0 21.0
15.0 90.0 40.0
12.0 51.0 72.0
71.0 47.0 89.0
78.0 53.0 35.0
30.0 36.0 82.0
21.0 74.0 79.0
99.0 46.0 83.0
26.0 24.0 78.0
79.0 53.0 20.0
15.0 48.0 5.0
93.0 11.0 75.0
97.0 46.0 87.0
93.0 26.0 75.0
2.0 97.0 55.0
57.0 46.0 1.0
28.0 99.0 33.0
69.0 46.0 71.0
49.0 46.0 31.0
24.0 78.0 73.0
25.0 90.0 20.0
43.0 46.0 67.0
21.0 70.0 42.0
36.0 95.0 83.0
18.0 76.0 22.0
42.0 53.0 9.0
99.0 47.0 69.0
92.0 38.0 13.0
87.0 47.0 89.0
9.0 99.0 23.0
17.0 63.0 43.0
90.0 45.0 70.0
77.0 53.0 31.0
93.0 22.0 76.0
28.0 40.0 9.0
41.0 46.0 17.0
93.0 9.0 74.0
93.0 7.0 76.0
10.0 91.0 82.0
30.0 99.0 17.0
83.0 53.0 79.0
77.0 53.0 20.0
62.0 53.0 76.0
26.0 90.0 33.0
63.0 51.0 6.0
93.0 11.0 12.0
17.0 86.0 55.0
96.0 23.0 79.0
99.0 46.0 44.0
31.0 53.0 61.0
82.0 46.0 21.0
17.0 92.0 12.0
96.0 3.0 77.0
29.0 39.0 77.0
68.0 54.0 68.0
18.0 46.0 15.0
74.0 53.0 66.0
77.0 53.0 47.0
14.0 99.0 42.0
99.0 46.0 14.0
23.0 94.0 95.0
56.0 49.0 89.0
92.0 46.0 25.0
59.0 46.0 56.0
23.0 57.0 78.0
33.0 99.0 15.0
31.0 46.0 70.0
35.0 98.0 71.0
18.0 46.0 3.0
16.0 53.0 36.0
20.0 88.0 60.0
27.0 39.0 80.0
71.0 46.0 51.0
94.0 53.0 14.0
19.0 86.0 43.0
20.0 99.0 52.0
80.0 53.0 57.0
29.0 39.0 9.0
18.0 80.0 23.0
92.0 12.0 74.0
20.0 68.0 72.0
33.0 53.0 9.0
52.0 46.0 48.0
48.0 46.0 87.0
81.0 53.0 34.0
5.0 52.0 41.0
26.0 9.0 8.0
20.0 87.0 78.0
58.0 53.0 53.0
54.0 51.0 6.0
35.0 53.0 26.0
7.0 46.0 54.0
16.0 55.0 42.0
69.0 53.0 65.0
12.0 90.0 24.0
30.0 38.0 74.0
16.0 93.0 89.0
32.0 43.0 17.0
23.0 44.0 13.0
17.0 83.0 42.0
48.0 53.0 22.0
30.0 46.0 70.0
93.0 5.0 78.0
77.0 53.0 14.0
72.0 53.0 66.0
27.0 46.0 81.0
20.0 82.0 72.0
34.0 96.0 16.0
8.0 46.0 48.0
93.0 32.0 13.0
64.0 46.0 22.0
24.0 46.0 50.0
78.0 46.0 12.0
23.0 45.0 10.0
25.0 42.0 7.0
96.0 46.0 77.0
16.0 75.0 56.0
35.0 53.0 65.0
26.0 96.0 64.0
13.0 46.0 9.0
22.0 53.0 75.0
95.0 45.0 70.0
94.0 52.0 82.0
76.0 53.0 40.0
81.0 52.0 7.0
19.0 65.0 61.0
34.0 53.0 27.0
16.0 55.0 38.0
19.0 52.0 60.0
91.0 46.0 71.0
95.0 41.0 14.0
73.0 53.0 7.0
88.0 46.0 57.0
65.0 53.0 57.0
30.0 38.0 10.0
52.0 53.0 50.0
64.0 46.0 44.0
8.0 99.0 54.0
85.0 53.0 8.0
6.0 93.0 27.0
33.0 98.0 90.0
20.0 69.0 77.0
96.0 32.0 79.0
36.0 46.0 20.0
39.0 95.0 76.0
65.0 53.0 20.0
33.0 97.0 91.0
15.0 53.0 72.0
26.0 93.0 97.0
54.0 46.0 35.0
96.0 50.0 69.0
94.0 42.0 16.0
21.0 90.0 11.0
77.0 46.0 14.0
26.0 46.0 51.0
2.0 99.0 45.0
70.0 55.0 56.0
28.0 46.0 26.0
83.0 46.0 53.0
80.0 53.0 51.0
94.0 52.0 53.0
14.0 53.0 29.0
29.0 9.0 15.0
5.0 51.0 51.0
33.0 46.0 36.0
22.0 97.0 94.0
4.0 91.0 67.0
24.0 53.0 42.0
50.0 46.0 76.0
95.0 22.0 15.0
21.0 56.0 71.0
21.0 53.0 35.0
71.0 46.0 83.0
63.0 53.0 43.0
39.0 46.0 49.0
29.0 35.0 72.0
95.0 27.0 8.0
21.0 53.0 62.0
22.0 91.0 94.0
24.0 46.0 89.0
95.0 51.0 46.0
81.0 46.0 89.0
19.0 84.0 61.0
26.0 21.0 12.0
67.0 53.0 62.0
28.0 42.0 83.0
65.0 53.0 67.0
71.0 53.0 9.0
24.0 75.0 72.0
18.0 82.0 23.0
29.0 9.0 8.0
93.0 46.0 18.0
95.0 51.0 67.0
63.0 46.0 43.0
97.0 38.0 10.0
4.0 50.0 57.0
53.0 46.0 4.0
68.0 46.0 5.0
59.0 48.0 89.0
16.0 46.0 85.0
85.0 52.0 7.0
28.0 90.0 89.0
7.0 90.0 30.0
27.0 43.0 4.0
97.0 46.0 52.0
26.0 90.0 83.0
29.0 23.0 74.0
8.0 46.0 38.0
70.0 46.0 43.0
94.0 53.0 63.0
92.0 14.0 75.0
40.0 51.0 5.0
3.0 50.0 47.0
41.0 46.0 75.0
98.0 46.0 78.0
26.0 33.0 78.0
73.0 53.0 41.0
28.0 45.0 70.0
35.0 99.0 19.0
23.0 46.0 25.0
37.0 95.0 28.0
23.0 51.0 84.0
18.0 81.0 20.0
22.0 87.0 56.0
12.0 99.0 65.0
14.0 96.0 14.0
47.0 53.0 54.0
16.0 71.0 42.0
25.0 36.0 74.0
57.0 46.0 85.0
29.0 42.0 79.0
17.0 52.0 38.0
21.0 73.0 42.0
55.0 46.0 29.0
36.0 53.0 79.0
27.0 46.0 75.0
13.0 48.0 81.0
26.0 32.0 75.0
68.0 53.0 38.0
18.0 90.0 25.0
16.0 81.0 57.0
15.0 90.0 54.0
4.0 46.0 51.0
92.0 47.0 0.0
5.0 47.0 19.0
27.0 50.0 4.0
96.0 24.0 76.0
44.0 46.0 27.0
15.0 90.0 73.0
22.0 55.0 24.0
31.0 46.0 31.0
46.0 53.0 52.0
13.0 90.0 54.0
20.0 94.0 92.0
80.0 46.0 84.0
30.0 53.0 77.0
80.0 53.0 53.0
94.0 53.0 25.0
92.0 46.0 11.0
25.0 75.0 74.0
15.0 99.0 50.0
96.0 53.0 15.0
69.0 53.0 36.0
70.0 46.0 83.0
31.0 90.0 82.0
19.0 99.0 39.0
53.0 46.0 63.0
23.0 57.0 78.0
21.0 74.0 60.0
1.0 46.0 35.0
29.0 45.0 4.0
37.0 46.0 16.0
93.0 25.0 79.0
9.0 46.0 55.0
27.0 31.0 15.0
29.0 14.0 82.0
15.0 90.0 70.0
96.0 26.0 13.0
88.0 46.0 16.0
21.0 47.0 88.0
11.0 49.0 78.0
43.0 46.0 22.0
92.0 14.0 6.0
85.0 46.0 62.0
97.0 46.0 27.0
70.0 53.0 54.0
19.0 52.0 73.0
5.0 96.0 70.0
17.0 83.0 59.0
13.0 90.0 73.0
85.0 49.0 87.0
93.0 29.0 9.0
8.0 94.0 23.0
19.0 97.0 10.0
29.0 4.0 79.0
25.0 12.0 80.0
18.0 62.0 21.0
21.0 56.0 38.0
31.0 52.0 82.0
93.0 45.0 84.0
6.0 96.0 75.0
71.0 53.0 56.0
29.0 34.0 15.0
24.0 96.0 40.0
21.0 84.0 42.0
46.0 46.0 57.0
70.0 54.0 63.0
69.0 54.0 45.0
18.0 86.0 21.0
96.0 17.0 9.0
18.0 74.0 23.0
22.0 53.0 59.0
21.0 65.0 37.0
54.0 53.0 58.0
29.0 29.0 13.0
96.0 31.0 12.0
26.0 1.0 13.0
90.0 46.0 13.0
22.0 99.0 12.0
13.0 90.0 83.0
6.0 53.0 50.0
20.0 78.0 36.0
58.0 46.0 13.0
21.0 53.0 80.0
32.0 97.0 94.0
26.0 99.0 87.0
93.0 35.0 11.0
23.0 99.0 16.0
45.0 46.0 1.0
13.0 46.0 33.0
28.0 0.0 11.0
78.0 53.0 7.0
18.0 90.0 32.0
5.0 99.0 42.0
84.0 46.0 14.0
20.0 55.0 17.0
69.0 46.0 22.0
16.0 91.0 89.0
19.0 90.0 37.0
79.0 50.0 3.0
20.0 64.0 17.0
67.0 46.0 39.0
51.0 53.0 35.0
73.0 53.0 46.0
19.0 82.0 18.0
